<?xml version="1.0" encoding="utf-8"?>
<!-- Generator: Adobe Illustrator 26.2.1, SVG Export Plug-In . SVG Version: 6.00 Build 0)  -->
<svg version="1.1" id="Layer_1" xmlns="http://www.w3.org/2000/svg" xmlns:xlink="http://www.w3.org/1999/xlink" x="0px" y="0px"
	 viewBox="0 0 727.5 559.2" style="enable-background:new 0 0 727.5 559.2;" xml:space="preserve">
<style type="text/css">
	.st0{fill:none;}
</style>
<g>
	<g>
		<path d="M393,45.2h67.8v256.4H393v-16.5c-11.7,14.4-28.1,21.6-49.1,21.6c-24.7,0-44.8-9.2-60.4-27.5
			C267.8,260.9,260,237.9,260,210c0-27.8,7.8-50.9,23.4-69.2c15.6-18.3,35.8-27.5,60.4-27.5c21,0,37.4,7.2,49.1,21.6V45.2z
			 M336.8,234.6c6,6.6,13.8,9.9,23.6,9.9s17.6-3.3,23.6-9.9c6-6.6,9-14.8,9-24.5c0-9.8-3-17.9-9-24.5c-6-6.6-13.9-9.9-23.6-9.9
			s-17.6,3.3-23.6,9.9c-6,6.6-9,14.8-9,24.5C327.8,219.8,330.8,228,336.8,234.6z"/>
		<path d="M649.3,169.4c22,12.5,33,31.4,33,56.8c0,23.4-7.6,41.9-22.9,55.3c-15.3,13.4-37.4,20.1-66.5,20.1H484.5V45.2h101.8
			c28.8,0,50.8,6.2,65.9,18.7c15.1,12.4,22.7,30.3,22.7,53.5C675,139.6,666.4,156.9,649.3,169.4z M581.9,108.2h-24.2v34.4l28.2-0.4
			c10.5-1.5,15.8-7.1,15.8-16.8c0-5.6-2-9.9-5.9-12.8C592,109.7,587.3,108.2,581.9,108.2z M588.5,238.6c5.9,0,10.7-1.7,14.7-5.1
			c3.9-3.4,5.9-7.8,5.9-13.2c0-10.3-5.5-16.2-16.5-17.9l-34.8-0.4v36.6H588.5z"/>
	</g>
	<g>
		<path d="M214.8,346.6h512.7L514.9,559.2H0V214.8L214.8,0V346.6z"/>
	</g>
	<rect x="260" y="45.2" class="st0" width="422.3" height="256.1"/>
	<rect x="682.3" y="301.3" class="st0" width="45.2" height="45.2"/>
	<rect x="214.8" y="301.3" class="st0" width="45.2" height="45.2"/>
	<rect x="214.8" class="st0" width="45.2" height="45.2"/>
	<rect x="682.3" class="st0" width="45.2" height="45.2"/>
</g>
</svg>
